# xmcd CD database file
# Copyright (C) 1993-1998 Ti Kan
#
# Track frame offsets:
#  150
#  14729
#  28956
#  50033
#  59647
#  76361
#  91065
#  109749
#  122110
#  132769
#  144983
#  158181
#  179354
#
# Disc length: 2598 seconds
#
# Revision: 1
# Processed by: cddbd v1.4b41PL1 Copyright (c) Steve Scherf et al.
# Submitted via: KiC 2.1 - (C) 1996-1998 Alwin Hoogerdijk
#
DISCID=b60a240d
DTITLE=Amy Allison - The Maudlin Years
DYEAR=1900
DGENRE=
TTITLE0=Cheater's World
TTITLE1=Hate At First Sight
TTITLE2=The Whiskey Makes You Sweeter
TTITLE3=Put It In A Box
TTITLE4=Garden State Mall
TTITLE5=Another Day To Cry
TTITLE6=You Just Don't Know What It's Like
TTITLE7=This Misery
TTITLE8=Everybody Ought To Know
TTITLE9=Holding The Baby
TTITLE10=My World Ain't So Blue
TTITLE11=Walking To The End Of The World
TTITLE12=Shady Streets
EXTD=
EXTT0=
EXTT1=
EXTT2=
EXTT3=
EXTT4=
EXTT5=
EXTT6=
EXTT7=
EXTT8=
EXTT9=
EXTT10=
EXTT11=
EXTT12=
PLAYORDER=
